<svg width="1440" height="70" viewBox="0 0 1440 70" fill="none" xmlns="http://www.w3.org/2000/svg">
<rect width="1440" height="70" fill="white"/>
<path d="M1152.18 31.4336H1153.12V36.3848C1153.12 36.5723 1153.11 36.7773 1153.11 37C1153.11 37.2188 1153.1 37.4336 1153.09 37.6445C1153.08 37.8555 1153.07 38.0469 1153.06 38.2188C1153.05 38.3906 1153.05 38.5234 1153.04 38.6172H1153.09L1157.86 31.4336H1158.95V40H1158.02V35.1074C1158.02 34.9004 1158.02 34.6816 1158.03 34.4512C1158.04 34.2168 1158.05 33.9902 1158.05 33.7715C1158.07 33.5527 1158.08 33.3574 1158.09 33.1855C1158.1 33.0098 1158.11 32.875 1158.11 32.7812H1158.06L1153.29 40H1152.18V31.4336ZM1162.79 33.4609C1163.28 33.4609 1163.69 33.5273 1164.04 33.6602C1164.39 33.7891 1164.67 33.9785 1164.86 34.2285C1165.05 34.4785 1165.14 34.7832 1165.14 35.1426C1165.14 35.5293 1165.04 35.8379 1164.83 36.0684C1164.62 36.2988 1164.33 36.4648 1163.96 36.5664V36.6133C1164.22 36.6836 1164.45 36.7852 1164.66 36.918C1164.88 37.0469 1165.05 37.2188 1165.17 37.4336C1165.3 37.6445 1165.37 37.9082 1165.37 38.2246C1165.37 38.584 1165.27 38.9082 1165.07 39.1973C1164.88 39.4824 1164.58 39.707 1164.18 39.8711C1163.79 40.0352 1163.28 40.1172 1162.67 40.1172C1162.37 40.1172 1162.09 40.0996 1161.82 40.0645C1161.55 40.0332 1161.3 39.9863 1161.08 39.9238C1160.87 39.8613 1160.67 39.7871 1160.51 39.7012V38.8164C1160.78 38.9492 1161.1 39.0664 1161.47 39.168C1161.84 39.2695 1162.23 39.3203 1162.66 39.3203C1162.99 39.3203 1163.28 39.2832 1163.54 39.209C1163.81 39.1309 1164.01 39.0078 1164.17 38.8398C1164.32 38.668 1164.4 38.4434 1164.4 38.166C1164.4 37.9121 1164.33 37.7031 1164.2 37.5391C1164.06 37.3711 1163.85 37.248 1163.58 37.1699C1163.31 37.0879 1162.97 37.0469 1162.55 37.0469H1161.69V36.25H1162.4C1162.95 36.25 1163.39 36.1719 1163.72 36.0156C1164.05 35.8594 1164.21 35.5957 1164.21 35.2246C1164.21 34.9043 1164.09 34.666 1163.83 34.5098C1163.58 34.3496 1163.21 34.2695 1162.74 34.2695C1162.39 34.2695 1162.08 34.3066 1161.81 34.3809C1161.54 34.4512 1161.25 34.5527 1160.94 34.6855L1160.59 33.9062C1160.93 33.7578 1161.28 33.6465 1161.65 33.5723C1162.01 33.498 1162.4 33.4609 1162.79 33.4609ZM1166.61 36.1445C1166.61 35.2305 1166.7 34.4512 1166.87 33.8066C1167.05 33.1582 1167.32 32.6387 1167.69 32.248C1168.06 31.8535 1168.54 31.584 1169.12 31.4395C1169.62 31.3027 1170.12 31.1855 1170.64 31.0879C1171.16 30.9863 1171.66 30.8984 1172.15 30.8242L1172.32 31.6797C1172.07 31.7148 1171.81 31.7559 1171.54 31.8027C1171.27 31.8457 1171 31.8926 1170.73 31.9434C1170.46 31.9902 1170.21 32.041 1169.97 32.0957C1169.73 32.1465 1169.52 32.1992 1169.34 32.2539C1169.01 32.3438 1168.72 32.5 1168.48 32.7227C1168.24 32.9453 1168.05 33.252 1167.91 33.6426C1167.77 34.0332 1167.69 34.5254 1167.66 35.1191H1167.73C1167.85 34.9473 1168.01 34.7773 1168.21 34.6094C1168.42 34.4414 1168.66 34.3027 1168.94 34.1934C1169.22 34.0801 1169.54 34.0234 1169.89 34.0234C1170.45 34.0234 1170.91 34.1445 1171.28 34.3867C1171.65 34.625 1171.93 34.9609 1172.12 35.3945C1172.3 35.8281 1172.4 36.3359 1172.4 36.918C1172.4 37.6172 1172.28 38.2051 1172.04 38.6816C1171.8 39.1582 1171.46 39.5176 1171.03 39.7598C1170.59 39.998 1170.08 40.1172 1169.5 40.1172C1169.04 40.1172 1168.64 40.0293 1168.28 39.8535C1167.92 39.6777 1167.62 39.4199 1167.37 39.0801C1167.12 38.7402 1166.94 38.3242 1166.8 37.832C1166.67 37.3398 1166.61 36.7773 1166.61 36.1445ZM1169.57 39.3086C1169.95 39.3086 1170.26 39.2305 1170.53 39.0742C1170.8 38.918 1171.01 38.6719 1171.15 38.3359C1171.3 37.9961 1171.37 37.5547 1171.37 37.0117C1171.37 36.332 1171.24 35.8008 1170.98 35.418C1170.72 35.0312 1170.31 34.8379 1169.74 34.8379C1169.38 34.8379 1169.06 34.9141 1168.77 35.0664C1168.48 35.2148 1168.24 35.3926 1168.04 35.5996C1167.84 35.8066 1167.7 35.9922 1167.61 36.1562C1167.61 36.5547 1167.63 36.9414 1167.69 37.3164C1167.75 37.6914 1167.85 38.0293 1168 38.3301C1168.14 38.6309 1168.34 38.8691 1168.6 39.0449C1168.85 39.2207 1169.18 39.3086 1169.57 39.3086ZM1177.1 33.4609C1177.9 33.4609 1178.54 33.7363 1179.01 34.2871C1179.49 34.8379 1179.73 35.666 1179.73 36.7715C1179.73 37.502 1179.62 38.1152 1179.4 38.6113C1179.18 39.1074 1178.87 39.4824 1178.47 39.7363C1178.08 39.9902 1177.61 40.1172 1177.07 40.1172C1176.73 40.1172 1176.44 40.0723 1176.18 39.9824C1175.92 39.8926 1175.7 39.7715 1175.52 39.6191C1175.33 39.4668 1175.18 39.3008 1175.06 39.1211H1174.99C1175 39.2734 1175.01 39.457 1175.03 39.6719C1175.05 39.8867 1175.06 40.0742 1175.06 40.2344V42.8711H1174.08V33.5781H1174.88L1175.01 34.5273H1175.06C1175.18 34.332 1175.34 34.1543 1175.52 33.9941C1175.7 33.8301 1175.91 33.7012 1176.17 33.6074C1176.43 33.5098 1176.74 33.4609 1177.1 33.4609ZM1176.93 34.2812C1176.48 34.2812 1176.12 34.3672 1175.85 34.5391C1175.58 34.7109 1175.38 34.9688 1175.26 35.3125C1175.13 35.6523 1175.07 36.0801 1175.06 36.5957V36.7832C1175.06 37.3262 1175.12 37.7852 1175.23 38.1602C1175.36 38.5352 1175.55 38.8203 1175.83 39.0156C1176.1 39.2109 1176.47 39.3086 1176.94 39.3086C1177.34 39.3086 1177.67 39.2012 1177.94 38.9863C1178.2 38.7715 1178.4 38.4727 1178.53 38.0898C1178.66 37.7031 1178.73 37.2598 1178.73 36.7598C1178.73 36.002 1178.58 35.4004 1178.28 34.9551C1177.99 34.5059 1177.54 34.2812 1176.93 34.2812ZM1183.83 33.4727C1184.6 33.4727 1185.16 33.6445 1185.54 33.9883C1185.91 34.332 1186.09 34.8809 1186.09 35.6348V40H1185.38L1185.2 39.0508H1185.15C1184.97 39.2852 1184.78 39.4824 1184.59 39.6426C1184.39 39.7988 1184.16 39.918 1183.91 40C1183.65 40.0781 1183.34 40.1172 1182.97 40.1172C1182.58 40.1172 1182.23 40.0488 1181.93 39.9121C1181.62 39.7754 1181.39 39.5684 1181.21 39.291C1181.04 39.0137 1180.95 38.6621 1180.95 38.2363C1180.95 37.5957 1181.21 37.1035 1181.71 36.7598C1182.22 36.416 1183 36.2285 1184.04 36.1973L1185.14 36.1504V35.7578C1185.14 35.2031 1185.02 34.8145 1184.79 34.5918C1184.55 34.3691 1184.21 34.2578 1183.78 34.2578C1183.44 34.2578 1183.12 34.3066 1182.82 34.4043C1182.51 34.502 1182.22 34.6172 1181.95 34.75L1181.65 34.0117C1181.94 33.8633 1182.27 33.7363 1182.65 33.6309C1183.02 33.5254 1183.42 33.4727 1183.83 33.4727ZM1185.13 36.8359L1184.15 36.877C1183.35 36.9082 1182.79 37.0391 1182.46 37.2695C1182.13 37.5 1181.97 37.8262 1181.97 38.248C1181.97 38.6152 1182.08 38.8867 1182.3 39.0625C1182.52 39.2383 1182.82 39.3262 1183.19 39.3262C1183.76 39.3262 1184.22 39.168 1184.59 38.8516C1184.95 38.5352 1185.13 38.0605 1185.13 37.4277V36.8359ZM1189.07 33.5781V36.2734H1192.65V33.5781H1193.63V40H1192.65V37.0996H1189.07V40H1188.1V33.5781H1189.07ZM1196.67 33.5781V36.2734H1200.25V33.5781H1201.22V40H1200.25V37.0996H1196.67V40H1195.69V33.5781H1196.67ZM1208.82 36.7773C1208.82 37.3047 1208.75 37.7754 1208.62 38.1895C1208.48 38.6035 1208.28 38.9531 1208.02 39.2383C1207.77 39.5234 1207.45 39.7422 1207.09 39.8945C1206.72 40.043 1206.31 40.1172 1205.85 40.1172C1205.42 40.1172 1205.03 40.043 1204.67 39.8945C1204.31 39.7422 1204 39.5234 1203.74 39.2383C1203.48 38.9531 1203.28 38.6035 1203.14 38.1895C1203 37.7754 1202.93 37.3047 1202.93 36.7773C1202.93 36.0742 1203.04 35.4766 1203.28 34.9844C1203.52 34.4883 1203.86 34.1113 1204.3 33.8535C1204.75 33.5918 1205.28 33.4609 1205.89 33.4609C1206.48 33.4609 1206.99 33.5918 1207.43 33.8535C1207.87 34.1152 1208.21 34.4941 1208.45 34.9902C1208.7 35.4824 1208.82 36.0781 1208.82 36.7773ZM1203.93 36.7773C1203.93 37.293 1204 37.7402 1204.14 38.1191C1204.28 38.498 1204.49 38.791 1204.77 38.998C1205.06 39.2051 1205.42 39.3086 1205.87 39.3086C1206.32 39.3086 1206.68 39.2051 1206.97 38.998C1207.26 38.791 1207.47 38.498 1207.61 38.1191C1207.74 37.7402 1207.81 37.293 1207.81 36.7773C1207.81 36.2656 1207.74 35.8242 1207.61 35.4531C1207.47 35.0781 1207.26 34.7891 1206.97 34.5859C1206.69 34.3828 1206.32 34.2812 1205.87 34.2812C1205.2 34.2812 1204.71 34.502 1204.4 34.9434C1204.09 35.3848 1203.93 35.9961 1203.93 36.7773ZM1212.97 33.4609C1213.52 33.4609 1213.99 33.582 1214.38 33.8242C1214.77 34.0664 1215.07 34.4062 1215.28 34.8438C1215.48 35.2773 1215.59 35.7852 1215.59 36.3672V36.9707H1211.15C1211.16 37.7246 1211.35 38.2988 1211.71 38.6934C1212.08 39.0879 1212.59 39.2852 1213.25 39.2852C1213.66 39.2852 1214.02 39.248 1214.33 39.1738C1214.64 39.0996 1214.96 38.9902 1215.3 38.8457V39.7012C1214.98 39.8457 1214.65 39.9512 1214.33 40.0176C1214.02 40.084 1213.64 40.1172 1213.21 40.1172C1212.59 40.1172 1212.05 39.9922 1211.59 39.7422C1211.13 39.4883 1210.78 39.1172 1210.53 38.6289C1210.27 38.1406 1210.14 37.543 1210.14 36.8359C1210.14 36.1445 1210.26 35.5469 1210.49 35.043C1210.72 34.5352 1211.05 34.1445 1211.47 33.8711C1211.9 33.5977 1212.4 33.4609 1212.97 33.4609ZM1212.96 34.2578C1212.44 34.2578 1212.03 34.4277 1211.72 34.7676C1211.41 35.1074 1211.23 35.582 1211.17 36.1914H1214.57C1214.56 35.8086 1214.5 35.4727 1214.39 35.1836C1214.27 34.8906 1214.1 34.6641 1213.87 34.5039C1213.63 34.3398 1213.33 34.2578 1212.96 34.2578Z" fill="#1C1C1C"/>
<path d="M1229.41 40.8733C1229.19 40.9533 1228.81 40.9533 1228.59 40.8733C1226.65 40.2133 1222.33 37.46 1222.33 32.7933C1222.33 30.7333 1223.99 29.0667 1226.04 29.0667C1227.25 29.0667 1228.33 29.6533 1229 30.56C1229.67 29.6533 1230.75 29.0667 1231.96 29.0667C1234.01 29.0667 1235.67 30.7333 1235.67 32.7933C1235.67 37.46 1231.35 40.2133 1229.41 40.8733Z" stroke="#1C1C1C" stroke-linecap="round" stroke-linejoin="round"/>
<path d="M1268.31 40H1267.11L1263.17 35.6523V40H1262.17V31.4336H1263.17V35.582L1267.01 31.4336H1268.15L1264.36 35.5938L1268.31 40ZM1274.89 36.7773C1274.89 37.3047 1274.82 37.7754 1274.68 38.1895C1274.54 38.6035 1274.35 38.9531 1274.09 39.2383C1273.83 39.5234 1273.52 39.7422 1273.15 39.8945C1272.79 40.043 1272.38 40.1172 1271.92 40.1172C1271.49 40.1172 1271.09 40.043 1270.73 39.8945C1270.38 39.7422 1270.07 39.5234 1269.81 39.2383C1269.55 38.9531 1269.35 38.6035 1269.2 38.1895C1269.06 37.7754 1268.99 37.3047 1268.99 36.7773C1268.99 36.0742 1269.11 35.4766 1269.35 34.9844C1269.59 34.4883 1269.93 34.1113 1270.37 33.8535C1270.81 33.5918 1271.34 33.4609 1271.96 33.4609C1272.54 33.4609 1273.05 33.5918 1273.49 33.8535C1273.93 34.1152 1274.28 34.4941 1274.52 34.9902C1274.76 35.4824 1274.89 36.0781 1274.89 36.7773ZM1270 36.7773C1270 37.293 1270.07 37.7402 1270.21 38.1191C1270.34 38.498 1270.55 38.791 1270.84 38.998C1271.12 39.2051 1271.49 39.3086 1271.94 39.3086C1272.38 39.3086 1272.75 39.2051 1273.04 38.998C1273.32 38.791 1273.54 38.498 1273.67 38.1191C1273.81 37.7402 1273.88 37.293 1273.88 36.7773C1273.88 36.2656 1273.81 35.8242 1273.67 35.4531C1273.54 35.0781 1273.33 34.7891 1273.04 34.5859C1272.76 34.3828 1272.39 34.2812 1271.93 34.2812C1271.27 34.2812 1270.78 34.502 1270.46 34.9434C1270.15 35.3848 1270 35.9961 1270 36.7773ZM1279.59 33.4609C1280.39 33.4609 1281.03 33.7363 1281.5 34.2871C1281.98 34.8379 1282.22 35.666 1282.22 36.7715C1282.22 37.502 1282.11 38.1152 1281.89 38.6113C1281.67 39.1074 1281.36 39.4824 1280.96 39.7363C1280.57 39.9902 1280.1 40.1172 1279.56 40.1172C1279.22 40.1172 1278.92 40.0723 1278.67 39.9824C1278.41 39.8926 1278.19 39.7715 1278 39.6191C1277.82 39.4668 1277.67 39.3008 1277.55 39.1211H1277.48C1277.49 39.2734 1277.5 39.457 1277.52 39.6719C1277.54 39.8867 1277.55 40.0742 1277.55 40.2344V42.8711H1276.57V33.5781H1277.37L1277.5 34.5273H1277.55C1277.67 34.332 1277.82 34.1543 1278 33.9941C1278.18 33.8301 1278.4 33.7012 1278.66 33.6074C1278.92 33.5098 1279.23 33.4609 1279.59 33.4609ZM1279.42 34.2812C1278.97 34.2812 1278.61 34.3672 1278.34 34.5391C1278.07 34.7109 1277.87 34.9688 1277.75 35.3125C1277.62 35.6523 1277.55 36.0801 1277.55 36.5957V36.7832C1277.55 37.3262 1277.61 37.7852 1277.72 38.1602C1277.84 38.5352 1278.04 38.8203 1278.31 39.0156C1278.59 39.2109 1278.96 39.3086 1279.43 39.3086C1279.83 39.3086 1280.16 39.2012 1280.42 38.9863C1280.69 38.7715 1280.89 38.4727 1281.02 38.0898C1281.15 37.7031 1281.21 37.2598 1281.21 36.7598C1281.21 36.002 1281.07 35.4004 1280.77 34.9551C1280.48 34.5059 1280.03 34.2812 1279.42 34.2812ZM1285.57 33.4609C1286.05 33.4609 1286.46 33.5273 1286.82 33.6602C1287.17 33.7891 1287.44 33.9785 1287.63 34.2285C1287.82 34.4785 1287.92 34.7832 1287.92 35.1426C1287.92 35.5293 1287.81 35.8379 1287.6 36.0684C1287.39 36.2988 1287.1 36.4648 1286.73 36.5664V36.6133C1286.99 36.6836 1287.23 36.7852 1287.44 36.918C1287.65 37.0469 1287.82 37.2188 1287.95 37.4336C1288.08 37.6445 1288.14 37.9082 1288.14 38.2246C1288.14 38.584 1288.04 38.9082 1287.85 39.1973C1287.65 39.4824 1287.36 39.707 1286.96 39.8711C1286.56 40.0352 1286.05 40.1172 1285.45 40.1172C1285.14 40.1172 1284.86 40.0996 1284.59 40.0645C1284.32 40.0332 1284.08 39.9863 1283.86 39.9238C1283.64 39.8613 1283.45 39.7871 1283.28 39.7012V38.8164C1283.56 38.9492 1283.88 39.0664 1284.24 39.168C1284.61 39.2695 1285.01 39.3203 1285.43 39.3203C1285.76 39.3203 1286.06 39.2832 1286.32 39.209C1286.58 39.1309 1286.79 39.0078 1286.94 38.8398C1287.1 38.668 1287.17 38.4434 1287.17 38.166C1287.17 37.9121 1287.11 37.7031 1286.97 37.5391C1286.83 37.3711 1286.63 37.248 1286.35 37.1699C1286.08 37.0879 1285.74 37.0469 1285.33 37.0469H1284.47V36.25H1285.18C1285.73 36.25 1286.17 36.1719 1286.49 36.0156C1286.82 35.8594 1286.99 35.5957 1286.99 35.2246C1286.99 34.9043 1286.86 34.666 1286.61 34.5098C1286.35 34.3496 1285.99 34.2695 1285.52 34.2695C1285.16 34.2695 1284.85 34.3066 1284.58 34.3809C1284.31 34.4512 1284.02 34.5527 1283.71 34.6855L1283.37 33.9062C1283.7 33.7578 1284.05 33.6465 1284.42 33.5723C1284.79 33.498 1285.17 33.4609 1285.57 33.4609ZM1290.64 33.5781V37.6152C1290.64 37.6934 1290.64 37.7949 1290.64 37.9199C1290.63 38.041 1290.63 38.1719 1290.62 38.3125C1290.61 38.4492 1290.6 38.582 1290.6 38.7109C1290.59 38.8359 1290.59 38.9395 1290.58 39.0215L1294.08 33.5781H1295.28V40H1294.37V36.0625C1294.37 35.9375 1294.37 35.7773 1294.38 35.582C1294.38 35.3867 1294.38 35.1953 1294.39 35.0078C1294.4 34.8164 1294.41 34.668 1294.41 34.5625L1290.92 40H1289.72V33.5781H1290.64ZM1298.32 33.5781V36.2734H1301.9V33.5781H1302.88V40H1301.9V37.0996H1298.32V40H1297.35V33.5781H1298.32ZM1307.34 33.4727C1308.11 33.4727 1308.68 33.6445 1309.05 33.9883C1309.42 34.332 1309.6 34.8809 1309.6 35.6348V40H1308.89L1308.71 39.0508H1308.66C1308.48 39.2852 1308.29 39.4824 1308.1 39.6426C1307.9 39.7988 1307.68 39.918 1307.42 40C1307.16 40.0781 1306.85 40.1172 1306.48 40.1172C1306.09 40.1172 1305.74 40.0488 1305.44 39.9121C1305.14 39.7754 1304.9 39.5684 1304.72 39.291C1304.55 39.0137 1304.46 38.6621 1304.46 38.2363C1304.46 37.5957 1304.72 37.1035 1305.23 36.7598C1305.73 36.416 1306.51 36.2285 1307.55 36.1973L1308.65 36.1504V35.7578C1308.65 35.2031 1308.54 34.8145 1308.3 34.5918C1308.06 34.3691 1307.72 34.2578 1307.29 34.2578C1306.95 34.2578 1306.63 34.3066 1306.33 34.4043C1306.02 34.502 1305.73 34.6172 1305.46 34.75L1305.16 34.0117C1305.45 33.8633 1305.78 33.7363 1306.16 33.6309C1306.53 33.5254 1306.93 33.4727 1307.34 33.4727ZM1308.64 36.8359L1307.66 36.877C1306.86 36.9082 1306.3 37.0391 1305.97 37.2695C1305.64 37.5 1305.48 37.8262 1305.48 38.248C1305.48 38.6152 1305.59 38.8867 1305.81 39.0625C1306.04 39.2383 1306.33 39.3262 1306.7 39.3262C1307.27 39.3262 1307.73 39.168 1308.1 38.8516C1308.46 38.5352 1308.64 38.0605 1308.64 37.4277V36.8359ZM1314.18 36.7129C1314.18 36.0527 1314.24 35.4102 1314.37 34.7852C1314.5 34.1602 1314.69 33.5645 1314.95 32.998C1315.21 32.4316 1315.54 31.9102 1315.94 31.4336H1316.88C1316.31 32.1758 1315.88 33 1315.6 33.9062C1315.31 34.8125 1315.17 35.7441 1315.17 36.7012C1315.17 37.3262 1315.23 37.9434 1315.36 38.5527C1315.49 39.1582 1315.68 39.7422 1315.93 40.3047C1316.18 40.8672 1316.49 41.3984 1316.86 41.8984H1315.94C1315.54 41.4297 1315.21 40.918 1314.95 40.3633C1314.69 39.8125 1314.5 39.2285 1314.37 38.6113C1314.24 37.9941 1314.18 37.3613 1314.18 36.7129ZM1320.54 34.7617C1321.12 34.7617 1321.62 34.8613 1322.05 35.0605C1322.48 35.2559 1322.82 35.541 1323.05 35.916C1323.29 36.291 1323.41 36.7461 1323.41 37.2812C1323.41 37.8672 1323.28 38.373 1323.03 38.7988C1322.77 39.2207 1322.41 39.5469 1321.93 39.7773C1321.46 40.0039 1320.88 40.1172 1320.22 40.1172C1319.78 40.1172 1319.36 40.0781 1318.98 40C1318.6 39.9219 1318.27 39.8047 1318.01 39.6484V38.7227C1318.3 38.8945 1318.64 39.0312 1319.05 39.1328C1319.46 39.2344 1319.85 39.2852 1320.23 39.2852C1320.67 39.2852 1321.04 39.2168 1321.37 39.0801C1321.7 38.9395 1321.95 38.7285 1322.13 38.4473C1322.31 38.1621 1322.41 37.8047 1322.41 37.375C1322.41 36.8047 1322.23 36.3652 1321.88 36.0566C1321.53 35.7441 1320.98 35.5879 1320.23 35.5879C1319.98 35.5879 1319.72 35.6074 1319.43 35.6465C1319.14 35.6855 1318.9 35.7285 1318.71 35.7754L1318.22 35.4531L1318.55 31.4336H1322.81V32.3242H1319.38L1319.17 34.9082C1319.31 34.877 1319.51 34.8457 1319.74 34.8145C1319.97 34.7793 1320.24 34.7617 1320.54 34.7617ZM1327.16 36.7012C1327.16 37.3535 1327.1 37.9902 1326.97 38.6113C1326.85 39.2285 1326.65 39.8145 1326.39 40.3691C1326.13 40.9238 1325.8 41.4336 1325.4 41.8984H1324.48C1324.86 41.4023 1325.17 40.8711 1325.42 40.3047C1325.67 39.7383 1325.86 39.1523 1325.99 38.5469C1326.12 37.9375 1326.18 37.3203 1326.18 36.6953C1326.18 36.0586 1326.12 35.4316 1325.99 34.8145C1325.86 34.1973 1325.67 33.6035 1325.41 33.0332C1325.16 32.4629 1324.85 31.9297 1324.47 31.4336H1325.4C1325.8 31.9141 1326.13 32.4375 1326.39 33.0039C1326.65 33.5664 1326.85 34.1602 1326.97 34.7852C1327.1 35.4062 1327.16 36.0449 1327.16 36.7012Z" fill="#1C1C1C"/>
<path d="M1337.87 28.3333L1335.46 30.7533" stroke="#1C1C1C" stroke-miterlimit="10" stroke-linecap="round" stroke-linejoin="round"/>
<path d="M1342.13 28.3333L1344.54 30.7533" stroke="#1C1C1C" stroke-miterlimit="10" stroke-linecap="round" stroke-linejoin="round"/>
<path d="M1333.33 32.2332C1333.33 30.9999 1333.99 30.8999 1334.81 30.8999H1345.19C1346.01 30.8999 1346.67 30.9999 1346.67 32.2332C1346.67 33.6666 1346.01 33.5666 1345.19 33.5666H1334.81C1333.99 33.5666 1333.33 33.6666 1333.33 32.2332Z" stroke="#1C1C1C"/>
<path d="M1338.51 36.3333V38.6999" stroke="#1C1C1C" stroke-linecap="round"/>
<path d="M1341.57 36.3333V38.6999" stroke="#1C1C1C" stroke-linecap="round"/>
<path d="M1334.33 33.6667L1335.27 39.4267C1335.49 40.7201 1336 41.6667 1337.91 41.6667H1341.93C1344 41.6667 1344.31 40.7601 1344.55 39.5067L1345.67 33.6667" stroke="#1C1C1C" stroke-linecap="round"/>
<g clip-path="url(#clip0_6_1821)">
<path d="M93.6494 23.6667C96.5908 23.6667 99.4117 24.8372 101.492 26.9207C103.571 29.0042 104.74 31.8301 104.74 34.7766V45.3334C101.798 45.3334 98.9776 44.1629 96.8977 42.0794C94.8179 39.9959 93.6494 37.1701 93.6494 34.2236V23.6667Z" fill="#780096"/>
<path d="M105.708 36.3508V30.7449C105.708 29.8151 105.891 28.8943 106.246 28.0353C106.602 27.1763 107.122 26.3959 107.779 25.7386C108.435 25.0812 109.215 24.5599 110.072 24.2045C110.93 23.849 111.849 23.6663 112.778 23.6667V29.2745C112.778 30.2043 112.595 31.1249 112.239 31.9838C111.884 32.8427 111.363 33.623 110.707 34.2802C110.05 34.9374 109.271 35.4585 108.413 35.8138C107.555 36.169 106.636 36.3515 105.708 36.3508Z" fill="#780096"/>
<path d="M105.708 37.4456H113.81C115.897 37.4456 117.898 38.276 119.374 39.7542C120.85 41.2324 121.679 43.2373 121.679 45.3278H113.576C111.49 45.3278 109.488 44.4973 108.013 43.0191C106.537 41.5409 105.708 39.5361 105.708 37.4456Z" fill="#780096"/>
</g>
<path d="M145.803 45.3333H141.268L136.333 37.3125L134.645 38.5365V45.3333H130.651V26.2969H134.645V35.0078C134.912 34.6345 135.174 34.2613 135.431 33.888C135.689 33.5148 135.951 33.1415 136.217 32.7682L141.319 26.2969H145.751L139.18 34.7214L145.803 45.3333Z" fill="#780096"/>
<path d="M160.954 38.0286C160.954 39.2439 160.791 40.3203 160.464 41.2578C160.147 42.1953 159.679 42.9896 159.06 43.6406C158.45 44.283 157.712 44.7691 156.844 45.099C155.985 45.4288 155.015 45.5938 153.932 45.5938C152.919 45.5938 151.987 45.4288 151.137 45.099C150.295 44.7691 149.56 44.283 148.933 43.6406C148.315 42.9896 147.834 42.1953 147.49 41.2578C147.155 40.3203 146.988 39.2439 146.988 38.0286C146.988 36.4141 147.271 35.0469 147.838 33.9271C148.405 32.8073 149.213 31.9566 150.26 31.375C151.308 30.7934 152.558 30.5026 154.01 30.5026C155.358 30.5026 156.552 30.7934 157.591 31.375C158.639 31.9566 159.459 32.8073 160.052 33.9271C160.653 35.0469 160.954 36.4141 160.954 38.0286ZM150.995 38.0286C150.995 38.9835 151.098 39.7865 151.304 40.4375C151.51 41.0885 151.832 41.579 152.27 41.9089C152.708 42.2387 153.28 42.4036 153.984 42.4036C154.68 42.4036 155.242 42.2387 155.672 41.9089C156.11 41.579 156.427 41.0885 156.625 40.4375C156.831 39.7865 156.934 38.9835 156.934 38.0286C156.934 37.0651 156.831 36.2665 156.625 35.6328C156.427 34.9905 156.11 34.5087 155.672 34.1875C155.234 33.8663 154.662 33.7057 153.958 33.7057C152.919 33.7057 152.163 34.066 151.691 34.7865C151.227 35.5069 150.995 36.5877 150.995 38.0286Z" fill="#780096"/>
<path d="M172.163 33.7578H168.762V45.3333H164.832V33.7578H162.668V31.8438L164.832 30.776V29.7083C164.832 28.467 165.038 27.5035 165.45 26.8177C165.871 26.1233 166.46 25.6372 167.216 25.3594C167.98 25.0729 168.882 24.9297 169.921 24.9297C170.686 24.9297 171.381 24.9948 172.008 25.125C172.635 25.2465 173.146 25.3854 173.541 25.5417L172.537 28.4583C172.236 28.3628 171.91 28.276 171.557 28.1979C171.205 28.1198 170.801 28.0807 170.346 28.0807C169.797 28.0807 169.393 28.25 169.135 28.5885C168.886 28.9184 168.762 29.3438 168.762 29.8646V30.776H172.163V33.7578ZM182.38 33.7578H178.978V45.3333H175.049V33.7578H172.884V31.8438L175.049 30.776V29.7083C175.049 28.467 175.255 27.5035 175.667 26.8177C176.088 26.1233 176.676 25.6372 177.432 25.3594C178.197 25.0729 179.099 24.9297 180.138 24.9297C180.902 24.9297 181.598 24.9948 182.225 25.125C182.852 25.2465 183.363 25.3854 183.758 25.5417L182.753 28.4583C182.453 28.3628 182.126 28.276 181.774 28.1979C181.422 28.1198 181.018 28.0807 180.563 28.0807C180.013 28.0807 179.61 28.25 179.352 28.5885C179.103 28.9184 178.978 29.3438 178.978 29.8646V30.776H182.38V33.7578Z" fill="#780096"/>
<rect x="412" y="16" width="514" height="38" rx="19" fill="#EEEFF2"/>
<path d="M437.172 31.4336H439.598C440.668 31.4336 441.473 31.5938 442.012 31.9141C442.551 32.2344 442.82 32.7793 442.82 33.5488C442.82 33.8809 442.756 34.1797 442.627 34.4453C442.502 34.707 442.318 34.9238 442.076 35.0957C441.834 35.2676 441.535 35.3867 441.18 35.4531V35.5117C441.555 35.5703 441.887 35.6777 442.176 35.834C442.465 35.9902 442.691 36.209 442.855 36.4902C443.02 36.7715 443.102 37.1289 443.102 37.5625C443.102 38.0898 442.979 38.5352 442.732 38.8984C442.49 39.2617 442.146 39.5371 441.701 39.7246C441.256 39.9082 440.729 40 440.119 40H437.172V31.4336ZM438.168 35.1074H439.809C440.555 35.1074 441.07 34.9844 441.355 34.7383C441.645 34.4922 441.789 34.1328 441.789 33.6602C441.789 33.1719 441.617 32.8203 441.273 32.6055C440.934 32.3906 440.391 32.2832 439.645 32.2832H438.168V35.1074ZM438.168 35.9453V39.1504H439.949C440.711 39.1504 441.25 39.002 441.566 38.7051C441.883 38.4043 442.041 38 442.041 37.4922C442.041 37.168 441.969 36.8906 441.824 36.6602C441.684 36.4297 441.453 36.2539 441.133 36.1328C440.816 36.0078 440.393 35.9453 439.861 35.9453H438.168ZM449.887 35.1895C449.887 35.5918 449.77 35.9062 449.535 36.1328C449.301 36.3555 448.998 36.5059 448.627 36.584V36.6309C449.029 36.6855 449.375 36.8301 449.664 37.0645C449.957 37.2949 450.104 37.6484 450.104 38.125C450.104 38.4922 450.016 38.8164 449.84 39.0977C449.664 39.3789 449.389 39.5996 449.014 39.7598C448.639 39.9199 448.15 40 447.549 40H444.783V33.5781H447.525C447.986 33.5781 448.393 33.6309 448.744 33.7363C449.1 33.8379 449.379 34.0059 449.582 34.2402C449.785 34.4746 449.887 34.791 449.887 35.1895ZM449.09 38.125C449.09 37.7461 448.945 37.4727 448.656 37.3047C448.371 37.1367 447.955 37.0527 447.408 37.0527H445.762V39.209H447.432C447.971 39.209 448.381 39.127 448.662 38.9629C448.947 38.7949 449.09 38.5156 449.09 38.125ZM448.896 35.3008C448.896 34.9961 448.785 34.7695 448.562 34.6211C448.34 34.4688 447.975 34.3926 447.467 34.3926H445.762V36.2383H447.297C447.824 36.2383 448.223 36.1621 448.492 36.0098C448.762 35.8574 448.896 35.6211 448.896 35.3008ZM454.146 33.4609C454.693 33.4609 455.162 33.582 455.553 33.8242C455.943 34.0664 456.242 34.4062 456.449 34.8438C456.656 35.2773 456.76 35.7852 456.76 36.3672V36.9707H452.324C452.336 37.7246 452.523 38.2988 452.887 38.6934C453.25 39.0879 453.762 39.2852 454.422 39.2852C454.828 39.2852 455.188 39.248 455.5 39.1738C455.812 39.0996 456.137 38.9902 456.473 38.8457V39.7012C456.148 39.8457 455.826 39.9512 455.506 40.0176C455.189 40.084 454.814 40.1172 454.381 40.1172C453.764 40.1172 453.225 39.9922 452.764 39.7422C452.307 39.4883 451.951 39.1172 451.697 38.6289C451.443 38.1406 451.316 37.543 451.316 36.8359C451.316 36.1445 451.432 35.5469 451.662 35.043C451.896 34.5352 452.225 34.1445 452.646 33.8711C453.072 33.5977 453.572 33.4609 454.146 33.4609ZM454.135 34.2578C453.615 34.2578 453.201 34.4277 452.893 34.7676C452.584 35.1074 452.4 35.582 452.342 36.1914H455.74C455.736 35.8086 455.676 35.4727 455.559 35.1836C455.445 34.8906 455.271 34.6641 455.037 34.5039C454.803 34.3398 454.502 34.2578 454.135 34.2578ZM463.117 33.5781V39.1738H464.037V42.2207H463.094V40H458.547V42.2207H457.615V39.1738H458.119C458.486 38.666 458.791 38.1094 459.033 37.5039C459.275 36.8984 459.459 36.2637 459.584 35.5996C459.709 34.9316 459.775 34.2578 459.783 33.5781H463.117ZM462.174 34.3516H460.65C460.615 34.9219 460.531 35.502 460.398 36.0918C460.27 36.6816 460.098 37.2441 459.883 37.7793C459.668 38.3105 459.418 38.7754 459.133 39.1738H462.174V34.3516ZM466.24 33.5781V37.6152C466.24 37.6934 466.238 37.7949 466.234 37.9199C466.23 38.041 466.225 38.1719 466.217 38.3125C466.209 38.4492 466.201 38.582 466.193 38.7109C466.189 38.8359 466.184 38.9395 466.176 39.0215L469.68 33.5781H470.875V40H469.967V36.0625C469.967 35.9375 469.969 35.7773 469.973 35.582C469.977 35.3867 469.982 35.1953 469.99 35.0078C469.998 34.8164 470.004 34.668 470.008 34.5625L466.516 40H465.314V33.5781H466.24ZM477.32 34.4043H475.205V40H474.244V34.4043H472.158V33.5781H477.32V34.4043ZM481.064 33.4609C481.611 33.4609 482.08 33.582 482.471 33.8242C482.861 34.0664 483.16 34.4062 483.367 34.8438C483.574 35.2773 483.678 35.7852 483.678 36.3672V36.9707H479.242C479.254 37.7246 479.441 38.2988 479.805 38.6934C480.168 39.0879 480.68 39.2852 481.34 39.2852C481.746 39.2852 482.105 39.248 482.418 39.1738C482.73 39.0996 483.055 38.9902 483.391 38.8457V39.7012C483.066 39.8457 482.744 39.9512 482.424 40.0176C482.107 40.084 481.732 40.1172 481.299 40.1172C480.682 40.1172 480.143 39.9922 479.682 39.7422C479.225 39.4883 478.869 39.1172 478.615 38.6289C478.361 38.1406 478.234 37.543 478.234 36.8359C478.234 36.1445 478.35 35.5469 478.58 35.043C478.814 34.5352 479.143 34.1445 479.564 33.8711C479.99 33.5977 480.49 33.4609 481.064 33.4609ZM481.053 34.2578C480.533 34.2578 480.119 34.4277 479.811 34.7676C479.502 35.1074 479.318 35.582 479.26 36.1914H482.658C482.654 35.8086 482.594 35.4727 482.477 35.1836C482.363 34.8906 482.189 34.6641 481.955 34.5039C481.721 34.3398 481.42 34.2578 481.053 34.2578ZM490.1 33.4609C490.58 33.4609 490.996 33.5273 491.348 33.6602C491.699 33.7891 491.971 33.9785 492.162 34.2285C492.354 34.4785 492.449 34.7832 492.449 35.1426C492.449 35.5293 492.344 35.8379 492.133 36.0684C491.922 36.2988 491.631 36.4648 491.26 36.5664V36.6133C491.521 36.6836 491.758 36.7852 491.969 36.918C492.184 37.0469 492.354 37.2188 492.479 37.4336C492.607 37.6445 492.672 37.9082 492.672 38.2246C492.672 38.584 492.574 38.9082 492.379 39.1973C492.184 39.4824 491.887 39.707 491.488 39.8711C491.09 40.0352 490.586 40.1172 489.977 40.1172C489.676 40.1172 489.391 40.0996 489.121 40.0645C488.852 40.0332 488.607 39.9863 488.389 39.9238C488.17 39.8613 487.979 39.7871 487.814 39.7012V38.8164C488.088 38.9492 488.408 39.0664 488.775 39.168C489.143 39.2695 489.539 39.3203 489.965 39.3203C490.293 39.3203 490.588 39.2832 490.85 39.209C491.111 39.1309 491.318 39.0078 491.471 38.8398C491.627 38.668 491.705 38.4434 491.705 38.166C491.705 37.9121 491.637 37.7031 491.5 37.5391C491.363 37.3711 491.158 37.248 490.885 37.1699C490.615 37.0879 490.273 37.0469 489.859 37.0469H488.998V36.25H489.707C490.258 36.25 490.697 36.1719 491.025 36.0156C491.354 35.8594 491.518 35.5957 491.518 35.2246C491.518 34.9043 491.391 34.666 491.137 34.5098C490.883 34.3496 490.52 34.2695 490.047 34.2695C489.695 34.2695 489.385 34.3066 489.115 34.3809C488.846 34.4512 488.555 34.5527 488.242 34.6855L487.896 33.9062C488.232 33.7578 488.584 33.6465 488.951 33.5723C489.318 33.498 489.701 33.4609 490.1 33.4609ZM496.65 33.4727C497.416 33.4727 497.984 33.6445 498.355 33.9883C498.727 34.332 498.912 34.8809 498.912 35.6348V40H498.203L498.016 39.0508H497.969C497.789 39.2852 497.602 39.4824 497.406 39.6426C497.211 39.7988 496.984 39.918 496.727 40C496.473 40.0781 496.16 40.1172 495.789 40.1172C495.398 40.1172 495.051 40.0488 494.746 39.9121C494.445 39.7754 494.207 39.5684 494.031 39.291C493.859 39.0137 493.773 38.6621 493.773 38.2363C493.773 37.5957 494.027 37.1035 494.535 36.7598C495.043 36.416 495.816 36.2285 496.855 36.1973L497.963 36.1504V35.7578C497.963 35.2031 497.844 34.8145 497.605 34.5918C497.367 34.3691 497.031 34.2578 496.598 34.2578C496.262 34.2578 495.941 34.3066 495.637 34.4043C495.332 34.502 495.043 34.6172 494.77 34.75L494.471 34.0117C494.76 33.8633 495.092 33.7363 495.467 33.6309C495.842 33.5254 496.236 33.4727 496.65 33.4727ZM497.951 36.8359L496.973 36.877C496.172 36.9082 495.607 37.0391 495.279 37.2695C494.951 37.5 494.787 37.8262 494.787 38.248C494.787 38.6152 494.898 38.8867 495.121 39.0625C495.344 39.2383 495.639 39.3262 496.006 39.3262C496.576 39.3262 497.043 39.168 497.406 38.8516C497.77 38.5352 497.951 38.0605 497.951 37.4277V36.8359ZM506.295 33.5781V40H505.316V34.416H501.895V40H500.916V33.5781H506.295ZM511.375 33.4609C512.176 33.4609 512.814 33.7363 513.291 34.2871C513.768 34.8379 514.006 35.666 514.006 36.7715C514.006 37.502 513.896 38.1152 513.678 38.6113C513.459 39.1074 513.15 39.4824 512.752 39.7363C512.357 39.9902 511.891 40.1172 511.352 40.1172C511.012 40.1172 510.713 40.0723 510.455 39.9824C510.197 39.8926 509.977 39.7715 509.793 39.6191C509.609 39.4668 509.457 39.3008 509.336 39.1211H509.266C509.277 39.2734 509.291 39.457 509.307 39.6719C509.326 39.8867 509.336 40.0742 509.336 40.2344V42.8711H508.357V33.5781H509.16L509.289 34.5273H509.336C509.461 34.332 509.613 34.1543 509.793 33.9941C509.973 33.8301 510.191 33.7012 510.449 33.6074C510.711 33.5098 511.02 33.4609 511.375 33.4609ZM511.205 34.2812C510.76 34.2812 510.4 34.3672 510.127 34.5391C509.857 34.7109 509.66 34.9688 509.535 35.3125C509.41 35.6523 509.344 36.0801 509.336 36.5957V36.7832C509.336 37.3262 509.395 37.7852 509.512 38.1602C509.633 38.5352 509.83 38.8203 510.104 39.0156C510.381 39.2109 510.752 39.3086 511.217 39.3086C511.615 39.3086 511.947 39.2012 512.213 38.9863C512.479 38.7715 512.676 38.4727 512.805 38.0898C512.938 37.7031 513.004 37.2598 513.004 36.7598C513.004 36.002 512.855 35.4004 512.559 34.9551C512.266 34.5059 511.814 34.2812 511.205 34.2812ZM521.242 36.7773C521.242 37.3047 521.174 37.7754 521.037 38.1895C520.9 38.6035 520.703 38.9531 520.445 39.2383C520.188 39.5234 519.875 39.7422 519.508 39.8945C519.145 40.043 518.732 40.1172 518.271 40.1172C517.842 40.1172 517.447 40.043 517.088 39.8945C516.732 39.7422 516.424 39.5234 516.162 39.2383C515.904 38.9531 515.703 38.6035 515.559 38.1895C515.418 37.7754 515.348 37.3047 515.348 36.7773C515.348 36.0742 515.467 35.4766 515.705 34.9844C515.943 34.4883 516.283 34.1113 516.725 33.8535C517.17 33.5918 517.699 33.4609 518.312 33.4609C518.898 33.4609 519.41 33.5918 519.848 33.8535C520.289 34.1152 520.631 34.4941 520.873 34.9902C521.119 35.4824 521.242 36.0781 521.242 36.7773ZM516.355 36.7773C516.355 37.293 516.424 37.7402 516.561 38.1191C516.697 38.498 516.908 38.791 517.193 38.998C517.479 39.2051 517.846 39.3086 518.295 39.3086C518.74 39.3086 519.105 39.2051 519.391 38.998C519.68 38.791 519.893 38.498 520.029 38.1191C520.166 37.7402 520.234 37.293 520.234 36.7773C520.234 36.2656 520.166 35.8242 520.029 35.4531C519.893 35.0781 519.682 34.7891 519.396 34.5859C519.111 34.3828 518.742 34.2812 518.289 34.2812C517.621 34.2812 517.131 34.502 516.818 34.9434C516.51 35.3848 516.355 35.9961 516.355 36.7773ZM525.496 40.1172C524.918 40.1172 524.408 39.998 523.967 39.7598C523.525 39.5215 523.182 39.1582 522.936 38.6699C522.689 38.1816 522.566 37.5664 522.566 36.8242C522.566 36.0469 522.695 35.4121 522.953 34.9199C523.215 34.4238 523.574 34.0566 524.031 33.8184C524.488 33.5801 525.008 33.4609 525.59 33.4609C525.91 33.4609 526.219 33.4941 526.516 33.5605C526.816 33.623 527.062 33.7031 527.254 33.8008L526.961 34.6152C526.766 34.5371 526.539 34.4668 526.281 34.4043C526.027 34.3418 525.789 34.3105 525.566 34.3105C525.121 34.3105 524.75 34.4062 524.453 34.5977C524.16 34.7891 523.939 35.0703 523.791 35.4414C523.646 35.8125 523.574 36.2695 523.574 36.8125C523.574 37.332 523.645 37.7754 523.785 38.1426C523.93 38.5098 524.143 38.791 524.424 38.9863C524.709 39.1777 525.064 39.2734 525.49 39.2734C525.83 39.2734 526.137 39.2383 526.41 39.168C526.684 39.0938 526.932 39.0078 527.154 38.9102V39.7773C526.939 39.8867 526.699 39.9707 526.434 40.0293C526.172 40.0879 525.859 40.1172 525.496 40.1172Z" fill="#969EAE"/>
<path d="M893.666 40.9999C897.164 40.9999 900 38.1644 900 34.6666C900 31.1688 897.164 28.3333 893.666 28.3333C890.169 28.3333 887.333 31.1688 887.333 34.6666C887.333 38.1644 890.169 40.9999 893.666 40.9999Z" stroke="#1C1C1C" stroke-width="1.5" stroke-linecap="round" stroke-linejoin="round"/>
<path d="M900.666 41.6666L899.333 40.3333" stroke="#1C1C1C" stroke-width="1.5" stroke-linecap="round" stroke-linejoin="round"/>
<rect y="69" width="1440" height="1" fill="#EEEFF2"/>
<defs>
<clipPath id="clip0_6_1821">
<rect width="28.0351" height="21.6667" fill="white" transform="translate(93.6494 23.6667)"/>
</clipPath>
</defs>
</svg>
