<svg width="94" height="25" viewBox="0 0 94 25" fill="none" xmlns="http://www.w3.org/2000/svg">
<g clip-path="url(#clip0_48_2603)">
<path d="M1.64911 1.66675C4.59047 1.66675 7.41137 2.83725 9.49123 4.92075C11.5711 7.00425 12.7395 9.83008 12.7395 12.7766V23.3334C9.79817 23.3334 6.97728 22.1629 4.89742 20.0794C2.81756 17.9959 1.64911 15.1701 1.64911 12.2236V1.66675Z" fill="#780096"/>
<path d="M13.708 14.3508V8.74489C13.708 7.81506 13.8909 6.89434 14.2462 6.03533C14.6015 5.17633 15.1223 4.39587 15.7789 3.73855C16.4354 3.08124 17.2147 2.55994 18.0724 2.20446C18.9301 1.84897 19.8493 1.66625 20.7775 1.66675V7.27453C20.7775 8.20427 20.5946 9.1249 20.2393 9.9838C19.884 10.8427 19.3631 11.623 18.7066 12.2802C18.05 12.9374 17.2707 13.4585 16.413 13.8138C15.5553 14.169 14.6361 14.3515 13.708 14.3508Z" fill="#780096"/>
<path d="M13.708 15.4456H21.8101C23.8969 15.4456 25.8983 16.276 27.3739 17.7542C28.8495 19.2324 29.6785 21.2373 29.6785 23.3278H21.5764C19.4896 23.3278 17.4882 22.4973 16.0126 21.0191C14.537 19.5409 13.708 17.5361 13.708 15.4456Z" fill="#780096"/>
</g>
<path d="M53.8026 23.3333H49.2675L44.333 15.3125L42.6453 16.5365V23.3333H38.6513V4.29688H42.6453V13.0078C42.9115 12.6345 43.1735 12.2613 43.4312 11.888C43.6889 11.5148 43.9508 11.1415 44.2171 10.7682L49.3191 4.29688H53.7511L47.1804 12.7214L53.8026 23.3333Z" fill="#780096"/>
<path d="M68.9539 16.0286C68.9539 17.2439 68.7907 18.3203 68.4644 19.2578C68.1466 20.1953 67.6784 20.9896 67.06 21.6406C66.4502 22.283 65.7115 22.7691 64.844 23.099C63.9851 23.4288 63.0145 23.5938 61.9323 23.5938C60.9188 23.5938 59.9868 23.4288 59.1365 23.099C58.2948 22.7691 57.5604 22.283 56.9334 21.6406C56.315 20.9896 55.834 20.1953 55.4904 19.2578C55.1554 18.3203 54.9879 17.2439 54.9879 16.0286C54.9879 14.4141 55.2714 13.0469 55.8383 11.9271C56.4051 10.8073 57.2125 9.9566 58.2604 9.375C59.3083 8.7934 60.558 8.5026 62.0096 8.5026C63.3581 8.5026 64.552 8.7934 65.5913 9.375C66.6392 9.9566 67.4594 10.8073 68.0521 11.9271C68.6533 13.0469 68.9539 14.4141 68.9539 16.0286ZM58.9948 16.0286C58.9948 16.9835 59.0979 17.7865 59.304 18.4375C59.5101 19.0885 59.8322 19.579 60.2703 19.9089C60.7083 20.2387 61.2795 20.4036 61.9838 20.4036C62.6795 20.4036 63.2421 20.2387 63.6716 19.9089C64.1096 19.579 64.4274 19.0885 64.625 18.4375C64.8311 17.7865 64.9342 16.9835 64.9342 16.0286C64.9342 15.0651 64.8311 14.2665 64.625 13.6328C64.4274 12.9905 64.1096 12.5087 63.6716 12.1875C63.2335 11.8663 62.6624 11.7057 61.958 11.7057C60.9188 11.7057 60.1629 12.066 59.6905 12.7865C59.2267 13.5069 58.9948 14.5877 58.9948 16.0286Z" fill="#780096"/>
<path d="M80.1628 11.7578H76.7615V23.3333H72.832V11.7578H70.6675V9.84375L72.832 8.77604V7.70833C72.832 6.46701 73.0381 5.50347 73.4504 4.81771C73.8712 4.12326 74.4596 3.63715 75.2155 3.35938C75.9799 3.07292 76.8818 2.92969 77.921 2.92969C78.6855 2.92969 79.3812 2.99479 80.0082 3.125C80.6352 3.24653 81.1463 3.38542 81.5414 3.54167L80.5364 6.45833C80.2358 6.36285 79.9094 6.27604 79.5573 6.19792C79.2051 6.11979 78.8014 6.08073 78.3462 6.08073C77.7965 6.08073 77.3928 6.25 77.1351 6.58854C76.886 6.9184 76.7615 7.34375 76.7615 7.86458V8.77604H80.1628V11.7578ZM90.3797 11.7578H86.9783V23.3333H83.0488V11.7578H80.8843V9.84375L83.0488 8.77604V7.70833C83.0488 6.46701 83.2549 5.50347 83.6672 4.81771C84.0881 4.12326 84.6764 3.63715 85.4323 3.35938C86.1967 3.07292 87.0986 2.92969 88.1379 2.92969C88.9023 2.92969 89.598 2.99479 90.225 3.125C90.8521 3.24653 91.3631 3.38542 91.7582 3.54167L90.7533 6.45833C90.4527 6.36285 90.1263 6.27604 89.7741 6.19792C89.422 6.11979 89.0183 6.08073 88.563 6.08073C88.0133 6.08073 87.6096 6.25 87.352 6.58854C87.1029 6.9184 86.9783 7.34375 86.9783 7.86458V8.77604H90.3797V11.7578Z" fill="#780096"/>
<defs>
<clipPath id="clip0_48_2603">
<rect width="28.0351" height="21.6667" fill="white" transform="translate(1.64911 1.66675)"/>
</clipPath>
</defs>
</svg>
